<?xml version="1.0" standalone="no"?><!DOCTYPE svg PUBLIC "-//W3C//DTD SVG 1.1//EN" "http://www.w3.org/Graphics/SVG/1.1/DTD/svg11.dtd"><svg t="1552286323022" class="icon" style="" viewBox="0 0 1024 1024" version="1.1" xmlns="http://www.w3.org/2000/svg" p-id="2569" xmlns:xlink="http://www.w3.org/1999/xlink" width="200" height="200"><defs><style type="text/css"></style></defs><path d="M345.6 757.6H228c-8.8 0-16-7.2-16-16 0-30.4-24.8-55.2-55.2-55.2s-55.2 24.8-55.2 55.2c0 8.8-7.2 16-16 16H20c-8.8 0-16-7.2-16-16V500c0-4.8 2.4-9.6 5.6-12l125.6-104c3.2-2.4 6.4-4 10.4-4h200c8.8 0 16 7.2 16 16v345.6c0 8.8-7.2 16-16 16z m-103.2-32h87.2V412H151.2l-115.2 96v217.6h35.2c7.2-40.8 43.2-71.2 85.6-71.2 42.4 0 77.6 31.2 85.6 71.2z" p-id="2570" fill="#e6e6e6"></path><path d="M289.6 584.8H76c-4.8 0-8-3.2-8-8v-50.4c0-2.4 0.8-4.8 3.2-6.4l97.6-80c1.6-0.8 3.2-1.6 4.8-1.6h116c4.8 0 8 3.2 8 8v131.2c0 4-4 7.2-8 7.2z m-205.6-16h197.6V453.6H176.8l-92.8 76.8v38.4zM156.8 828.8c-48 0-87.2-39.2-87.2-87.2s39.2-87.2 87.2-87.2 87.2 39.2 87.2 87.2-39.2 87.2-87.2 87.2z m0-142.4c-30.4 0-55.2 24.8-55.2 55.2 0 30.4 24.8 55.2 55.2 55.2s55.2-24.8 55.2-55.2c0-30.4-24.8-55.2-55.2-55.2z" p-id="2571" fill="#e6e6e6"></path><path d="M156.8 772.8c-16.8 0-31.2-13.6-31.2-31.2 0-16.8 13.6-31.2 31.2-31.2 16.8 0 31.2 13.6 31.2 31.2s-14.4 31.2-31.2 31.2z m0-46.4c-8 0-15.2 6.4-15.2 15.2 0 8 6.4 15.2 15.2 15.2 8 0 15.2-6.4 15.2-15.2 0-8-7.2-15.2-15.2-15.2zM632 828.8c-48 0-87.2-39.2-87.2-87.2S584 654.4 632 654.4s87.2 39.2 87.2 87.2S680 828.8 632 828.8z m0-142.4c-30.4 0-55.2 24.8-55.2 55.2 0 30.4 24.8 55.2 55.2 55.2 30.4 0 55.2-24.8 55.2-55.2 0-30.4-24.8-55.2-55.2-55.2z" p-id="2572" fill="#e6e6e6"></path><path d="M632 772.8c-16.8 0-31.2-13.6-31.2-31.2 0-16.8 13.6-31.2 31.2-31.2 16.8 0 31.2 13.6 31.2 31.2s-14.4 31.2-31.2 31.2z m0-46.4c-8 0-15.2 6.4-15.2 15.2 0 8 6.4 15.2 15.2 15.2 8 0 15.2-6.4 15.2-15.2 0-8-7.2-15.2-15.2-15.2zM848 828.8c-48 0-87.2-39.2-87.2-87.2S800 654.4 848 654.4s87.2 39.2 87.2 87.2-39.2 87.2-87.2 87.2z m0-142.4c-30.4 0-55.2 24.8-55.2 55.2 0 30.4 24.8 55.2 55.2 55.2 30.4 0 55.2-24.8 55.2-55.2 0-30.4-24.8-55.2-55.2-55.2z" p-id="2573" fill="#e6e6e6"></path><path d="M848 772.8c-16.8 0-31.2-13.6-31.2-31.2 0-16.8 13.6-31.2 31.2-31.2 16.8 0 31.2 13.6 31.2 31.2s-14.4 31.2-31.2 31.2z m0-46.4c-8 0-15.2 6.4-15.2 15.2 0 8 6.4 15.2 15.2 15.2 8 0 15.2-6.4 15.2-15.2 0-8-7.2-15.2-15.2-15.2z" p-id="2574" fill="#e6e6e6"></path><path d="M1004 757.6h-84.8c-8.8 0-16-7.2-16-16 0-30.4-24.8-55.2-55.2-55.2-30.4 0-55.2 24.8-55.2 55.2 0 8.8-7.2 16-16 16h-73.6c-8.8 0-16-7.2-16-16 0-30.4-24.8-55.2-55.2-55.2-30.4 0-55.2 24.8-55.2 55.2 0 8.8-7.2 16-16 16H345.6c-8.8 0-16-7.2-16-16V211.2c0-8.8 7.2-16 16-16h92c7.2 0 12.8 4.8 15.2 11.2L481.6 296h522.4c8.8 0 16 7.2 16 16v429.6c0 8.8-7.2 16-16 16z m-70.4-32h54.4V328H469.6c-7.2 0-12.8-4.8-15.2-11.2l-28-89.6h-64v498.4h184.8c7.2-40.8 43.2-71.2 85.6-71.2 42.4 0 78.4 30.4 85.6 71.2h44.8c7.2-40.8 43.2-71.2 85.6-71.2 41.6 0 77.6 31.2 84.8 71.2z" p-id="2575" fill="#e6e6e6"></path><path d="M1004 628H345.6c-4.8 0-8-3.2-8-8s3.2-8 8-8h658.4c4.8 0 8 3.2 8 8 0 4-3.2 8-8 8z" p-id="2576" fill="#e6e6e6"></path></svg>